<?xml version="1.0" encoding="UTF-8"?>
<svg id="_ロゴ" data-name="ロゴ" xmlns="http://www.w3.org/2000/svg" viewBox="0 0 302.52 114.51">
  <defs>
    <style>
      .cls-1 {
        fill: #382f2d;
      }

      .cls-2 {
        fill-rule: evenodd;
      }

      .cls-2, .cls-3 {
        fill: #c8102e;
      }
    </style>
  </defs>
  <g>
    <g>
      <polygon class="cls-2" points="0 14.67 0 73.23 15 73.23 15 22.24 15 14.67 0 14.67"/>
      <path class="cls-2" d="M66.47,14.67h-14.64c-4.12,0-7.5,3.4-7.5,7.56h14.63v50.99h15V22.24c0-4.16-3.37-7.56-7.5-7.56Z"/>
      <path class="cls-2" d="M36.98,14.67h-14.63c-4.12,0-7.5,3.4-7.5,7.56h14.63v50.99h15V22.24c0-4.16-3.38-7.56-7.5-7.56Z"/>
    </g>
    <path class="cls-2" d="M126.73,14.67h-36.48c-4.16,0-7.56,3.4-7.56,7.56v10.67h15v-10.87h21.61v18.23h-36.61v25.4c0,4.16,3.4,7.56,7.56,7.56h44.05V22.24c0-4.16-3.4-7.56-7.56-7.56ZM119.3,65.87h-21.61v-18.23h21.61v18.23Z"/>
    <path class="cls-2" d="M175.33,40.43l21.51-25.76h-8.48l-16.91,20.24-12.02-17.14c-1.19-1.7-3.87-3.1-5.95-3.1h-13.96l22.29,31.79-22.36,26.77h8.48l17.75-21.25,12.73,18.16c1.2,1.7,3.87,3.1,5.95,3.1h13.96l-23-32.8Z"/>
    <path class="cls-2" d="M217.08,22.04h21.61v18.23h-21.61v-18.23ZM246.13,14.67h-36.48c-4.16,0-7.56,3.4-7.56,7.56v43.43c0,4.16,3.4,7.56,7.56,7.56h36.48c4.16,0,7.56-3.4,7.56-7.56v-10.67h-15v10.87h-21.61v-18.23h36.61v-25.4c0-4.16-3.4-7.56-7.56-7.56Z"/>
    <path class="cls-2" d="M277.62,0v73.23h-15V7.56c0-4.16,3.37-7.56,7.5-7.56h7.5Z"/>
    <path class="cls-2" d="M302.52,0v73.23h-15V7.56c0-4.16,3.37-7.56,7.5-7.56h7.5Z"/>
  </g>
  <g>
    <path class="cls-1" d="M25.61,108.8h-4.29l-5.15-19.14-5.12,19.14h-4.29L.62,87.04h3.58l4.93,18.94,5.12-18.94h4.1l5.12,18.94,4.93-18.94h3.36l-6.14,21.76Z"/>
    <path class="cls-1" d="M36.25,89.28v-2.85h3.46v2.85h-3.46ZM36.32,108.8v-16.38h3.33v16.38h-3.33Z"/>
    <path class="cls-1" d="M52.98,109.04c-.61.07-1.14.11-1.58.11-1.77,0-3.02-.37-3.76-1.12-.74-.75-1.1-1.77-1.1-3.07v-10.14h-2.13l5.46-6.53v4.13h4.32v2.4h-4.32v9.5c0,1.62.82,2.43,2.46,2.43.08,0,.23-.02.43-.05.2-.03.41-.07.62-.11.21-.04.43-.08.64-.13.21-.04.38-.09.51-.13v2.43c-.43.11-.94.2-1.55.27Z"/>
    <path class="cls-1" d="M149.02,109.04c-.61.07-1.14.11-1.58.11-1.77,0-3.02-.37-3.76-1.12-.74-.75-1.1-1.77-1.1-3.07v-10.14h-2.13l5.46-6.53v4.13h4.32v2.4h-4.32v9.5c0,1.62.82,2.43,2.46,2.43.09,0,.23-.02.43-.05.2-.03.41-.07.62-.11.21-.04.43-.08.64-.13.21-.04.38-.09.51-.13v2.43c-.43.11-.94.2-1.55.27Z"/>
    <path class="cls-1" d="M248.41,109.04c-.61.07-1.14.11-1.58.11-1.77,0-3.02-.37-3.76-1.12-.74-.75-1.1-1.77-1.1-3.07v-10.14h-2.13l5.46-6.53v4.13h4.32v2.4h-4.32v9.5c0,1.62.82,2.43,2.46,2.43.09,0,.23-.02.43-.05.2-.03.41-.07.62-.11.21-.04.43-.08.64-.13.21-.04.38-.09.51-.13v2.43c-.43.11-.94.2-1.55.27Z"/>
    <path class="cls-1" d="M70.9,108.8v-9.98c0-1.49-.3-2.59-.91-3.3-.61-.7-1.62-1.05-3.02-1.05-.38,0-.79.03-1.22.08-.43.05-.83.12-1.22.21-.38.09-.73.17-1.02.26-.3.09-.51.16-.64.22v13.57h-3.33v-23.14h3.33v7.42c.15-.08.42-.19.8-.3.38-.12.83-.23,1.33-.34.5-.11,1.02-.2,1.57-.29.54-.08,1.07-.13,1.58-.13,2.07,0,3.6.46,4.59,1.39.99.93,1.49,2.26,1.49,3.98v11.39h-3.33Z"/>
    <path class="cls-1" d="M80.42,89.28v-2.85h3.46v2.85h-3.46ZM80.49,108.8v-16.38h3.33v16.38h-3.33Z"/>
    <path class="cls-1" d="M101.48,108.8v-9.98c0-1.51-.3-2.62-.9-3.31-.6-.69-1.61-1.04-3.04-1.04-.92,0-1.75.1-2.51.29-.76.19-1.29.34-1.58.45v13.6h-3.33v-15.42c.21-.06.56-.17,1.06-.32.49-.15,1.08-.3,1.76-.45.68-.15,1.43-.28,2.24-.4.81-.12,1.63-.18,2.46-.18,2.3,0,4.08.44,5.31,1.31,1.24.88,1.86,2.23,1.86,4.06v11.39h-3.33Z"/>
    <path class="cls-1" d="M167.75,108.8v-9.98c0-1.49-.3-2.59-.91-3.3-.61-.7-1.62-1.05-3.03-1.05-.38,0-.79.03-1.21.08-.43.05-.83.12-1.22.21-.38.09-.72.17-1.02.26-.3.09-.51.16-.64.22v13.57h-3.33v-23.14h3.33v7.42c.15-.08.42-.19.8-.3.38-.12.83-.23,1.33-.34.5-.11,1.02-.2,1.57-.29.54-.08,1.07-.13,1.58-.13,2.07,0,3.6.46,4.59,1.39.99.93,1.49,2.26,1.49,3.98v11.39h-3.33Z"/>
    <path class="cls-1" d="M179.03,101.25c.04,1.88.47,3.29,1.28,4.22.81.94,2.16,1.41,4.06,1.41.55,0,1.12-.05,1.71-.16.59-.11,1.14-.23,1.65-.38.51-.15.95-.31,1.31-.48.36-.17.6-.31.7-.42v2.5c-.11.06-.33.17-.67.3-.34.14-.78.28-1.33.42-.54.14-1.19.26-1.94.37-.75.11-1.57.16-2.46.16-1.47,0-2.69-.19-3.66-.56-.97-.37-1.76-.94-2.35-1.7-.6-.76-1.02-1.7-1.26-2.82-.25-1.12-.37-2.43-.37-3.92,0-2.67.66-4.69,1.97-6.08,1.31-1.38,3.14-2.08,5.49-2.08s4.11.7,5.42,2.11c1.31,1.41,1.97,3.42,1.97,6.05v1.06h-11.52ZM187.32,99.2c-.04-1.43-.41-2.61-1.09-3.54-.68-.93-1.71-1.39-3.07-1.39s-2.36.42-3.04,1.27c-.68.84-1.05,2.06-1.09,3.66h8.29Z"/>
    <path class="cls-1" d="M207.37,89.66v6.72h8.54v2.62h-8.54v9.79h-3.42v-21.76h12.45v2.62h-9.02Z"/>
    <path class="cls-1" d="M234.36,108.32c-.49.13-1.07.26-1.74.38-.67.13-1.41.24-2.21.34-.8.1-1.62.14-2.45.14-1.28,0-2.37-.13-3.26-.4-.9-.27-1.62-.64-2.18-1.12-.55-.48-.96-1.05-1.2-1.7-.25-.65-.37-1.37-.37-2.16v-11.39h3.33v9.73c0,.75.06,1.41.18,1.98.12.58.32,1.06.61,1.46s.68.69,1.17.9c.49.2,1.11.3,1.86.3.32,0,.69-.02,1.11-.05.42-.03.82-.08,1.21-.14.39-.06.74-.13,1.04-.21.3-.07.5-.14.61-.21v-13.76h3.36v15.62c-.21.06-.56.16-1.05.29Z"/>
    <path class="cls-1" d="M268.29,108.32c-.49.13-1.07.26-1.74.38-.67.13-1.41.24-2.21.34-.8.1-1.62.14-2.45.14-1.28,0-2.37-.13-3.26-.4-.9-.27-1.62-.64-2.18-1.12-.55-.48-.96-1.05-1.2-1.7-.25-.65-.37-1.37-.37-2.16v-11.39h3.33v9.73c0,.75.06,1.41.18,1.98s.32,1.06.61,1.46c.29.39.68.69,1.17.9.49.2,1.11.3,1.86.3.32,0,.69-.02,1.1-.05.42-.03.82-.08,1.22-.14.39-.06.74-.13,1.04-.21.3-.07.5-.14.61-.21v-13.76h3.36v15.62c-.21.06-.57.16-1.06.29Z"/>
    <path class="cls-1" d="M283.64,94.45c-.37-.03-.66-.05-.85-.05-.43,0-.86.03-1.29.1-.44.06-.84.13-1.22.21-.37.07-.7.15-.97.24-.28.09-.48.14-.61.16v13.7h-3.33v-15.46c.15-.06.46-.17.93-.32.47-.15,1.03-.3,1.68-.45.65-.15,1.36-.28,2.13-.38.77-.11,1.53-.16,2.27-.16h.38c.19,0,.4,0,.64.03.23.02.45.04.66.06.2.02.34.04.4.06v2.37c-.17-.04-.44-.08-.81-.11Z"/>
    <path class="cls-1" d="M290.41,101.25c.04,1.88.47,3.29,1.28,4.22.81.94,2.16,1.41,4.06,1.41.55,0,1.12-.05,1.71-.16.59-.11,1.14-.23,1.65-.38.51-.15.95-.31,1.31-.48.36-.17.6-.31.7-.42v2.5c-.11.06-.33.17-.67.3-.34.14-.78.28-1.33.42-.54.14-1.19.26-1.94.37-.75.11-1.57.16-2.46.16-1.47,0-2.69-.19-3.66-.56-.97-.37-1.76-.94-2.35-1.7-.6-.76-1.02-1.7-1.26-2.82-.25-1.12-.37-2.43-.37-3.92,0-2.67.66-4.69,1.97-6.08,1.31-1.38,3.14-2.08,5.49-2.08s4.11.7,5.42,2.11c1.31,1.41,1.97,3.42,1.97,6.05v1.06h-11.52ZM298.7,99.2c-.04-1.43-.41-2.61-1.09-3.54-.68-.93-1.71-1.39-3.07-1.39s-2.36.42-3.04,1.27c-.68.84-1.05,2.06-1.09,3.66h8.29Z"/>
  </g>
  <polygon class="cls-3" points="107.54 114.51 119.38 114.51 119.38 100.33 107.54 114.51"/>
</svg>